# xmcd
#
# Track frame offsets:
#	150
#	21812
#	36020
#	54117
#	64927
#	75255
#	87877
#	105127
#	122822
#	138055
#	155802
#	168547
#	181937
#	197552
#	213080
#
# Disc length: 3067 seconds
#
# Revision: 669457636
# Processed by: cddbd v1.5.2PL0 Copyright (c) Steve Scherf et al.
# Submitted via: EZCDAudioConverter 8.5.0.1
#
DISCID=b20bf90f
DTITLE=Miranda Lambert - Revolution
DYEAR=2009
DGENRE=Country
TTITLE0=White Liar
TTITLE1=Only Prettier
TTITLE2=Dead Flowers
TTITLE3=Me And Your Cigarettes
TTITLE4=Maintain The Pain
TTITLE5=Airstream Song
TTITLE6=Makin’ Plans
TTITLE7=Time To Get A Gun
TTITLE8=Somewhere Trouble Don’T Go
TTITLE9=The House That Built Me
TTITLE10=Love Song
TTITLE11=Heart Like Mine
TTITLE12=Sin For A Sin
TTITLE13=That’S The Way That The World Goes ’Round
TTITLE14=Virginia Bluebell
EXTD=
EXTT0=
EXTT1=
EXTT2=
EXTT3=
EXTT4=
EXTT5=
EXTT6=
EXTT7=
EXTT8=
EXTT9=
EXTT10=
EXTT11=
EXTT12=
EXTT13=
EXTT14=
PLAYORDER=
